<svg width="10" height="5" viewBox="0 0 10 5" fill="none" xmlns="http://www.w3.org/2000/svg">
<path d="M4.99969 4.66665C4.84293 4.66695 4.69102 4.6127 4.57033 4.51331L0.545089 1.17998C0.408085 1.06682 0.321929 0.904214 0.305573 0.72793C0.289217 0.551645 0.344002 0.376125 0.457875 0.23998C0.571748 0.103836 0.735382 0.0182197 0.912778 0.00196652C1.09017 -0.0142866 1.2668 0.0401543 1.40381 0.153313L4.99969 3.13998L8.59557 0.259981C8.66419 0.204603 8.74315 0.163249 8.8279 0.138294C8.91266 0.11334 9.00155 0.105277 9.08945 0.11457C9.17735 0.123863 9.26254 0.150327 9.34012 0.192443C9.4177 0.234559 9.48613 0.291496 9.5415 0.35998C9.60293 0.428528 9.64947 0.508946 9.67817 0.596195C9.70688 0.683444 9.71715 0.775644 9.70833 0.86702C9.69951 0.958395 9.6718 1.04698 9.62693 1.12721C9.58206 1.20745 9.521 1.27762 9.44757 1.33331L5.42234 4.55331C5.29817 4.63699 5.14936 4.67689 4.99969 4.66665Z" fill="#83B33B"/>
</svg>
