<svg width="5" height="7" viewBox="0 0 5 7" fill="none" xmlns="http://www.w3.org/2000/svg">
<path d="M3.75016 5.41667H2.91683V0.875H1.66683C1.55632 0.875 1.45034 0.918898 1.3722 0.997039C1.29406 1.07518 1.25016 1.18116 1.25016 1.29167C1.25016 1.40217 1.29406 1.50815 1.3722 1.58629C1.45034 1.66443 1.55632 1.70833 1.66683 1.70833H2.0835V5.41667H1.25016C1.13966 5.41667 1.03368 5.46056 0.955535 5.5387C0.877395 5.61685 0.833496 5.72283 0.833496 5.83333C0.833496 5.94384 0.877395 6.04982 0.955535 6.12796C1.03368 6.2061 1.13966 6.25 1.25016 6.25H3.75016C3.86067 6.25 3.96665 6.2061 4.04479 6.12796C4.12293 6.04982 4.16683 5.94384 4.16683 5.83333C4.16683 5.72283 4.12293 5.61685 4.04479 5.5387C3.96665 5.46056 3.86067 5.41667 3.75016 5.41667Z" fill="#83B33B"/>
</svg>
