<svg width="15" height="15" viewBox="0 0 15 15" fill="none" xmlns="http://www.w3.org/2000/svg">
<path d="M7.50017 14.1666C6.18162 14.1666 4.89269 13.7756 3.79636 13.0431C2.70004 12.3105 1.84555 11.2693 1.34097 10.0511C0.836385 8.83297 0.704362 7.49253 0.961597 6.19932C1.21883 4.90611 1.85377 3.71823 2.78612 2.78588C3.71847 1.85353 4.90636 1.21859 6.19956 0.961353C7.49277 0.704118 8.83321 0.83614 10.0514 1.34072C11.2696 1.84531 12.3108 2.69979 13.0433 3.79612C13.7758 4.89245 14.1668 6.18138 14.1668 7.49992C14.1668 9.26803 13.4645 10.9637 12.2142 12.214C10.964 13.4642 9.26828 14.1666 7.50017 14.1666ZM7.50017 1.66659C6.34644 1.66659 5.21863 2.00871 4.25934 2.64968C3.30005 3.29066 2.55238 4.2017 2.11087 5.2676C1.66936 6.3335 1.55384 7.50639 1.77892 8.63795C2.004 9.7695 2.55957 10.8089 3.37538 11.6247C4.19118 12.4405 5.23058 12.9961 6.36214 13.2212C7.49369 13.4462 8.66658 13.3307 9.73249 12.8892C10.7984 12.4477 11.7094 11.7 12.3504 10.7407C12.9914 9.78146 13.3335 8.65365 13.3335 7.49992C13.3335 5.95283 12.7189 4.46909 11.625 3.37513C10.531 2.28117 9.04726 1.66659 7.50017 1.66659Z" fill="#83B33B"/>
</svg>
