<svg width="6" height="6" viewBox="0 0 6 6" fill="none" xmlns="http://www.w3.org/2000/svg">
<path d="M3.40662 2.63522L5.55512 0.486718C5.59757 0.437138 5.61976 0.373363 5.61724 0.308137C5.61472 0.242911 5.58768 0.181038 5.54153 0.134881C5.49537 0.0887248 5.4335 0.0616851 5.36827 0.0591657C5.30304 0.0566463 5.23927 0.0788328 5.18969 0.121291L3.04119 2.26979L0.89269 0.1187C0.843888 0.0698973 0.777698 0.0424805 0.708681 0.0424805C0.639665 0.0424805 0.573475 0.0698973 0.524672 0.1187C0.47587 0.167502 0.448453 0.233692 0.448453 0.302709C0.448453 0.371725 0.47587 0.437915 0.524672 0.486718L2.67576 2.63522L0.524672 4.78372C0.497542 4.80695 0.475508 4.83554 0.459952 4.86769C0.444396 4.89985 0.435654 4.93487 0.434275 4.97056C0.432897 5.00625 0.438911 5.04185 0.45194 5.0751C0.46497 5.10836 0.484733 5.13857 0.50999 5.16383C0.535248 5.18908 0.565453 5.20885 0.598711 5.22187C0.631968 5.2349 0.66756 5.24092 0.703253 5.23954C0.738945 5.23816 0.773967 5.22942 0.806121 5.21386C0.838274 5.19831 0.866865 5.17627 0.890099 5.14914L3.04119 3.00064L5.18969 5.14914C5.23927 5.1916 5.30304 5.21379 5.36827 5.21127C5.4335 5.20875 5.49537 5.18171 5.54153 5.13555C5.58768 5.0894 5.61472 5.02752 5.61724 4.9623C5.61976 4.89707 5.59757 4.8333 5.55512 4.78372L3.40662 2.63522Z" fill="#3A3A3C"/>
</svg>
