<svg width="10" height="5" viewBox="0 0 10 5" fill="none" xmlns="http://www.w3.org/2000/svg">
<path d="M4.9344 0.333231C5.09171 0.332927 5.24415 0.387177 5.36528 0.486564L9.40474 3.8199C9.54223 3.93306 9.62869 4.09566 9.6451 4.27195C9.66151 4.44823 9.60654 4.62375 9.49226 4.7599C9.37798 4.89604 9.21377 4.98166 9.03575 4.99791C8.85773 5.01416 8.68047 4.95972 8.54299 4.84656L4.9344 1.8599L1.32582 4.7399C1.25696 4.79528 1.17772 4.83663 1.09266 4.86158C1.0076 4.88654 0.918405 4.8946 0.830191 4.88531C0.741977 4.87602 0.656486 4.84955 0.578634 4.80744C0.500783 4.76532 0.432104 4.70838 0.376547 4.6399C0.314891 4.57135 0.268196 4.49093 0.239386 4.40368C0.210576 4.31644 0.200273 4.22423 0.209122 4.13286C0.217971 4.04148 0.245779 3.9529 0.290808 3.87266C0.335836 3.79243 0.397115 3.72226 0.470801 3.66657L4.51026 0.446565C4.63487 0.362887 4.7842 0.322984 4.9344 0.333231Z" fill="#83B33B"/>
</svg>
