<svg width="15" height="15" viewBox="0 0 15 15" fill="none" xmlns="http://www.w3.org/2000/svg">
<path d="M7.50017 14.1667C6.18162 14.1667 4.89269 13.7757 3.79636 13.0432C2.70004 12.3106 1.84555 11.2694 1.34097 10.0513C0.836385 8.83309 0.704362 7.49265 0.961597 6.19944C1.21883 4.90624 1.85377 3.71835 2.78612 2.786C3.71847 1.85365 4.90636 1.21871 6.19956 0.961475C7.49277 0.70424 8.83321 0.836263 10.0514 1.34085C11.2696 1.84543 12.3108 2.69991 13.0433 3.79624C13.7758 4.89257 14.1668 6.1815 14.1668 7.50004C14.1668 9.26815 13.4645 10.9638 12.2142 12.2141C10.964 13.4643 9.26828 14.1667 7.50017 14.1667ZM7.50017 1.66671C6.34644 1.66671 5.21863 2.00883 4.25934 2.6498C3.30005 3.29078 2.55238 4.20182 2.11087 5.26772C1.66936 6.33363 1.55384 7.50651 1.77892 8.63807C2.004 9.76963 2.55957 10.809 3.37538 11.6248C4.19118 12.4406 5.23058 12.9962 6.36214 13.2213C7.49369 13.4464 8.66658 13.3309 9.73249 12.8893C10.7984 12.4478 11.7094 11.7002 12.3504 10.7409C12.9914 9.78158 13.3335 8.65377 13.3335 7.50004C13.3335 5.95295 12.7189 4.46922 11.625 3.37525C10.531 2.28129 9.04726 1.66671 7.50017 1.66671Z" fill="#83B33B"/>
</svg>
