<svg width="23" height="29" viewBox="0 0 23 29" fill="none" xmlns="http://www.w3.org/2000/svg">
<path d="M14.1472 0.074707H2.83803C2.08818 0.074707 1.36905 0.37258 0.838834 0.902799C0.308616 1.43302 0.0107422 2.15215 0.0107422 2.90199V25.5203C0.0107422 26.2701 0.308616 26.9892 0.838834 27.5194C1.36905 28.0497 2.08818 28.3475 2.83803 28.3475H19.8017C20.5516 28.3475 21.2707 28.0497 21.8009 27.5194C22.3311 26.9892 22.629 26.2701 22.629 25.5203V8.55655L14.1472 0.074707ZM7.78294 20.1343C7.34613 20.5442 6.70151 20.728 5.95086 20.728C5.80532 20.7296 5.65983 20.7211 5.51546 20.7026V22.7184H4.25167V17.1543C4.82201 17.0692 5.3983 17.0305 5.9749 17.0384C6.76229 17.0384 7.3221 17.1882 7.69954 17.4894C8.0586 17.7749 8.30175 18.2428 8.30175 18.7941C8.30033 19.3483 8.11656 19.8162 7.78294 20.1343ZM13.1647 22.0498C12.5709 22.5431 11.6676 22.7778 10.5636 22.7778C9.90199 22.7778 9.43408 22.7354 9.11601 22.693V17.1557C9.68655 17.0725 10.2627 17.0332 10.8392 17.0384C11.9094 17.0384 12.6049 17.2307 13.1477 17.6406C13.7344 18.076 14.1019 18.7701 14.1019 19.7667C14.1019 20.8453 13.7075 21.5903 13.1647 22.0498ZM18.3881 18.1269H16.2224V19.4147H18.2467V20.4523H16.2224V22.7198H14.9416V17.0808H18.3881V18.1269ZM14.1472 9.9702H12.7335V2.90199L19.8017 9.9702H14.1472Z" fill="#FFA000"/>
</svg>
