<svg width="14" height="14" viewBox="0 0 14 14" fill="none" xmlns="http://www.w3.org/2000/svg">
<path d="M7.93982 7.00008L13.4665 1.47342C13.5757 1.34588 13.6328 1.18183 13.6263 1.01405C13.6198 0.846263 13.5503 0.687104 13.4315 0.568374C13.3128 0.449645 13.1536 0.380089 12.9859 0.373609C12.8181 0.367128 12.654 0.424199 12.5265 0.533416L6.99982 6.06008L1.47315 0.52675C1.34762 0.401214 1.17735 0.330688 0.999819 0.330688C0.822285 0.330688 0.652022 0.401214 0.526486 0.52675C0.40095 0.652285 0.330425 0.822549 0.330425 1.00008C0.330425 1.17762 0.40095 1.34788 0.526486 1.47342L6.05982 7.00008L0.526486 12.5268C0.456698 12.5865 0.400018 12.6601 0.360002 12.7428C0.319987 12.8255 0.2975 12.9156 0.293954 13.0074C0.290407 13.0992 0.305878 13.1907 0.339394 13.2763C0.372911 13.3618 0.423749 13.4395 0.488719 13.5045C0.553689 13.5695 0.631387 13.6203 0.716937 13.6538C0.802487 13.6874 0.894042 13.7028 0.985855 13.6993C1.07767 13.6957 1.16776 13.6732 1.25047 13.6332C1.33318 13.5932 1.40672 13.5365 1.46649 13.4668L6.99982 7.94008L12.5265 13.4668C12.654 13.576 12.8181 13.633 12.9859 13.6266C13.1536 13.6201 13.3128 13.5505 13.4315 13.4318C13.5503 13.3131 13.6198 13.1539 13.6263 12.9861C13.6328 12.8183 13.5757 12.6543 13.4665 12.5268L7.93982 7.00008Z" fill="#83B33B"/>
</svg>
